# xmcd
#
# Track frame offsets: 
#        150
#        27535
#        60212
#        83510
#        113755
#        140372
#        163657
#        184440
#        209637
#        227070
#        250437
#        287220
#        309087
#        325265
#
# Disc length: 4609 seconds
#
# Revision: 1
# Processed by: cddbd v1.5.1PL0 Copyright (c) Steve Scherf et al.
# Submitted via: ExactAudioCopy v0.95a4
#
DISCID=c411ff0e
DTITLE=Curtis Peagler and The Modern Jazz Disciples - Disciples Blues
DYEAR=1959
DGENRE=Jazz
TTITLE0=After You've Gone
TTITLE1=Disciples Blues
TTITLE2=Slippin' and Slidin'
TTITLE3=A Little Taste
TTITLE4=Perhaps
TTITLE5=Huck's Delight
TTITLE6=Dottie
TTITLE7=Right Down Front
TTITLE8=Along Came Cheryl
TTITLE9=Ros-Al
TTITLE10=The Happy Blues
TTITLE11=My Funny Valentine
TTITLE12=Kelley's Line
TTITLE13=Hapnin's
EXTD=YEAR: 1959
EXTT0=
EXTT1=
EXTT2=
EXTT3=
EXTT4=
EXTT5=
EXTT6=
EXTT7=
EXTT8=
EXTT9=
EXTT10=
EXTT11=
EXTT12=
EXTT13=
PLAYORDER=
